/* XPM */
static char *_594a7161f744e2597228f8d309e5cc1RrEiNbhfJUBP3P9A[] = {
/* columns rows colors chars-per-pixel */
"64 64 245 2 ",
"   c #CE2D5C",
".  c #D42E5A",
"X  c #D82D59",
"o  c #D7345C",
"O  c #E0335F",
"+  c #CC2B69",
"@  c #DD3562",
"#  c #DB3B62",
"$  c #D73868",
"%  c #D53777",
"&  c #CB2F72",
"*  c #E13561",
"=  c #E33B65",
"-  c #EC3C6B",
";  c #E83B69",
":  c #F13C6B",
">  c #F03768",
",  c #E53A77",
"<  c #DB4365",
"1  c #DC4B6A",
"2  c #D4466B",
"3  c #DD526F",
"4  c #CC4979",
"5  c #D94877",
"6  c #D95777",
"7  c #CC547D",
"8  c #E4456A",
"9  c #EB446D",
"0  c #E44B6D",
"q  c #EA4A6F",
"w  c #E14166",
"e  c #F1426E",
"r  c #ED4C71",
"t  c #E64774",
"y  c #F14C73",
"u  c #F14670",
"i  c #EE5174",
"p  c #E75777",
"a  c #F15276",
"s  c #F25679",
"d  c #F25A7B",
"f  c #E0506E",
"g  c #E8627D",
"h  c #F1617F",
"j  c #D4617F",
"k  c #DD8416",
"l  c #341EEC",
"z  c #3B1DEB",
"x  c #2F1FEC",
"c  c #2D23EE",
"v  c #2E2AEF",
"b  c #3424ED",
"n  c #3C23EB",
"m  c #352BEE",
"M  c #3C2CEC",
"N  c #3633EF",
"B  c #3C33ED",
"V  c #3C3AEF",
"C  c #3D3CF0",
"Z  c #3837F0",
"A  c #5E1BDE",
"S  c #681CDB",
"D  c #761CD4",
"F  c #7D1DCE",
"G  c #5E2BDF",
"H  c #5F27DE",
"J  c #7D35CE",
"K  c #6426DB",
"L  c #642BDC",
"P  c #6A2BDB",
"I  c #6C27D8",
"U  c #7A24D4",
"Y  c #742CD5",
"T  c #732BDA",
"R  c #7627D6",
"E  c #6C34DB",
"W  c #6938DC",
"Q  c #7434D5",
"!  c #7934D3",
"~  c #7334DB",
"^  c #743ADB",
"/  c #7A3AD7",
"(  c #7D20CF",
")  c #4C1BE6",
"_  c #431CE9",
"`  c #491CE8",
"'  c #561CE3",
"]  c #611DE1",
"[  c #4B25E6",
"{  c #4424EA",
"}  c #4B25E9",
"|  c #432CEA",
" . c #4C2BEA",
".. c #4C2AE6",
"X. c #5525E5",
"o. c #542BE5",
"O. c #5B2CE2",
"+. c #512DE9",
"@. c #5A24E3",
"#. c #4334EC",
"$. c #4B33EA",
"%. c #443BED",
"&. c #4B3CEB",
"*. c #5B33E4",
"=. c #5A3BE5",
"-. c #5333E9",
";. c #533CEA",
":. c #5B3BE9",
">. c #5736E7",
",. c #403FF0",
"<. c #642AE1",
"1. c #6333E2",
"2. c #633CE2",
"3. c #6939E3",
"4. c #713FE0",
"5. c #6C43DE",
"6. c #7546DB",
"7. c #7D58DD",
"8. c #4542EF",
"9. c #4C44EE",
"0. c #4D49EF",
"q. c #5444EB",
"w. c #5A43EA",
"e. c #544BED",
"r. c #5B4BEA",
"t. c #5D44E6",
"y. c #5C53ED",
"u. c #5A56EF",
"i. c #4443F0",
"p. c #4C4BF0",
"a. c #504FF0",
"s. c #5453F0",
"d. c #5C5CF1",
"f. c #5857F1",
"g. c #634BE6",
"h. c #6B4BE2",
"j. c #624CEA",
"k. c #6544E5",
"l. c #6454EA",
"z. c #635CEE",
"x. c #6A5BEA",
"c. c #6A52E5",
"v. c #7458E4",
"b. c #605FF1",
"n. c #7145E3",
"m. c #6B63ED",
"M. c #6A66EF",
"N. c #7766E8",
"B. c #7B72EE",
"V. c #6464F1",
"C. c #6B6AF1",
"Z. c #6867F0",
"A. c #7776F2",
"S. c #726EF0",
"D. c #B92B98",
"F. c #BA379B",
"G. c #B33396",
"H. c #8D2CBD",
"J. c #9828BB",
"K. c #8E34BE",
"L. c #9738BC",
"P. c #9E30AC",
"I. c #AC2AAB",
"U. c #B62EA8",
"Y. c #A936A9",
"T. c #B837A6",
"R. c #A52AB6",
"E. c #A837B6",
"W. c #B134B2",
"Q. c #C62E85",
"!. c #CB3788",
"~. c #D63884",
"^. c #C83997",
"/. c #D33792",
"(. c #CD3497",
"). c #B84798",
"_. c #BA549A",
"`. c #BE4C8D",
"'. c #9C4CBC",
"]. c #9844BC",
"[. c #9E53BB",
"{. c #AC4AAA",
"}. c #B748A8",
"|. c #B854A5",
" X c #A748B7",
".X c #A756BA",
"XX c #B756B6",
"oX c #B24DB0",
"OX c #A763BB",
"+X c #B86DBA",
"@X c #C74A88",
"#X c #D64787",
"$X c #C95888",
"%X c #D75688",
"&X c #C54696",
"*X c #C75695",
"=X c #D85698",
"-X c #D34C9B",
";X c #E65787",
":X c #E14C83",
">X c #D3638C",
",X c #E76986",
"<X c #F16783",
"1X c #E57791",
"2X c #C851A7",
"3X c #C972B5",
"4X c #881FCA",
"5X c #8B1FCA",
"6X c #8828CB",
"7X c #9528C4",
"8X c #8D3CC3",
"9X c #8334CB",
"0X c #8937C8",
"qX c #923AC3",
"wX c #9637C6",
"eX c #8226D2",
"rX c #8638D3",
"tX c #A239C0",
"yX c #8E42C4",
"uX c #8C46CA",
"iX c #9344C3",
"pX c #9849C3",
"aX c #9855C6",
"sX c #8446D3",
"dX c #8658D7",
"fX c #9554D2",
"gX c #A346C2",
"hX c #AB59C4",
"jX c #9D65C9",
"kX c #8B67DB",
"lX c #966FD7",
"zX c #A76DC9",
"xX c #867BEB",
"cX c #896FE5",
"vX c #845DE1",
"bX c #C175C7",
"nX c #D787B2",
"mX c #B189D4",
"MX c #8786F2",
"NX c #9A97F3",
"BX c #9287EB",
"VX c #A39AED",
"CX c #ADA5EE",
"ZX c #B7A0DF",
"AX c #C88EC4",
/* pixels */
"CXNXMXB.Z.b.e.a.&.,.,.&.9.e.y.l.vXcXcXlXZXAXnXnXnX1X1X,Xg g p p f f f f 0 1 1 1 3 3 g 6 g ,X,X>X=X=X2X}.E.tX6XeXT T T rXrXfXfXbX",
"VXMXB.x.y.a.;.,.,.$.%.&.;.e.j.v.vXkXzXbXbX3X3X>X,Xp p f f 8 0 8 8 w w o o # o < # 2 1 3 6 6 %X=X=X&XW.W.wX7XeXU T T T T rXfXhXbX",
"xXxXm.l.a.&.#.,.#.#.#.$.:.:.4.vXfXfXhXXX2X-X=X5 5 t < 8 w = = @ * * o O o X o o o # $ 2 5 5 #X&X2XT.W.tXJ.6XU U S S T T rXgXhXbX",
"cXm.j.;.$.#.| | { |  .+.-.3.rXrXpXgXoX}.(.-X#X5 < # # * o * * * o O X X X . . . . o # $ 5 !.&X^.U.W.R.7X6XeXU U R R eXrXwXtXbXbX",
"v.j.;.$.#.{ n n n { } ' <.T rXrX7XW.U.^./.Q.% % $ * * * * O * O O O O X X X X X . @ + % /./.(.T.W.R.wX7X6XeXU U U R eXrXtXhXbX3X",
"3.:.$.{ n n z z _ ` ' ' S eX6X7XR.R.U.D.Q.Q.% + @ @ @ * * * * = O O O o X X X X . $ $ % /.-XT.W.R.wX7X6X6XeXU U eXeXwXwXgXhX3X3X",
":. .{ { z z z z _ ` ' A S eX5X7XR.I.I.D.Q.Q.& % $ @ * = ; ; = ; = = * * O o X X @ $ % ~./.^.W.W.tXtX7X6X6X6XeX6XrX6XwXgXhX3X3XnX",
"+.} { z z z z z _ ) ' S D 4X5X7XJ.J.I.I.D.D.% % % ; ; 8 8 9 9 9 9 9 w w * = * o # $ k k k k k k k k wXwXwX6X0X0XwXqXtXgXXX3XbXnX",
"_ _ z z z z z _ k k k k k k k 4XJ.J.J.I.I.D.Q.k 1 0 i f i i a s q q k = 9 = = w 8 k #X#X-X2XXXtX XgXk k qX8X0X].qX].'. XOX+X3XnX",
"_ z z l z z _ k ) ' S S F F k 4X6X7XJ.I.U.D.Q.k 3 p p g g d h h a r k q q 9 9 8 8 k :X:X=X2X2XXXgXgXgXk pXiXyXuX].'.'..X.X+X+XZX",
"z z z z z z _ k ' A S S D ( F F 6X7XJ.L.Y.}.& k 6 ,Xh h h h h h d a k q q u q q y k ;X=X=X2X2X2XXXXXgXk k pX[.'.'.'.'.[.OXOXzXmX",
"z z z z z _ ` k A S D D I ( ( ( 6X6XwXE.T.).|.k ;X,X1X<Xh h h h d s k a i i a a ;Xk ;X;X=X=X2X2XXXXXXX.Xk aXuX[.pX'.'.'.[.jX+XmX",
"z z z z _ _ k ' S I R U R R Y J rXrXqX XoX2X=Xk ,X,X,X<Xh <Xh h h s k a a a s s s k k ;X;X;X=X2X2XXXXX.Xk [.[.[.yX[.[.yX[.aXjXmX",
"z z z _ ` } k <.<.T T T Y Q ! ! rXwXgXoX|.*X>Xk ,X,X<X<Xh h h h d d k s s s s s d d k ;X;X;X=X-X2X}.XXk [.[.uX'.[.yXyXyX'.7.jXjX",
"{ n z _ } X.k <.~ ^ ~ / ^ ^ / / sXiX'.oX_.*X%Xk g g <Xh h h d d d d k d d d d s s s k ;X;X;X:X-X-Xk k  X'.].yXyXyXyXyXyXyXaXaXlX",
"{ { { } +.1.k 4.4.n.n.4.4.4.^ / rXiX XoX&X#X6 k p p h g d d d d d d k s s s s s s a k y :Xa k k k }. X X].].yXyX8XyXyXyXyXuXaXjX",
"$.#.-.-.-.:.k n.n.n.4.4.3.3.4.rXrXwX XT.@X4 5 k 0 i i i s s s s d s k s s s a a y y k k k k k -X&X}.{.E.].K.K.K.K.K.0XK.].].[.jX",
";.;.-.;.:.j.k n.j.n.:.:.:.3.3.~ rXwXY.F.!.% $ k 8 q q i i a s s s s k a a a y y y u k r r t 5 k k k k k P.H.K.9XK.K.K.K.6.].[.[.",
"j.w.w.:.j.3.k j.:.:.-.-.-.<.3.T rXwXU.G.& % $ k w w q i i a a a a s k a y y u u u : k e r t 5 #X&X}.Y.k k H.H.H.K.H.K.K.K.].[.OX",
"y.j.j.j.j.:.k :.-.+.-. .+.@.<.T eX7XI.D.Q.+ + k w w 9 q a a a a a a k y y y u : : : k - 9 t 5 #X@X).Y.P.P.k H.H.H.H.H.K.].].[.[.",
"x.j.j.j.:.:.:.k  . .} } } X.<.eX6XJ.D.D.& +   k = w 0 y i a a a a y k y u e : : : : k > 9 0 5 #X@XF.G.P.P.H.k H.H.H.H.K.K.].[.OX",
"x.j.j.:.:.:.+.k k { { { } @.<.k k J.D.D.& +   k o w q q i a a a y y k u e e : : : : k - w 8 1 5 4 `.).Y.P.P.k P.H.H.K.K.8X].[.OX",
"j.j.:.:.:.-.+.} k k { ` } <.T k J.I.D.& + + . k # w 0 q i a a y y k u u : : - > > > k ; < 1 3 2 4 `.`.G.G.P.k K.H.H.K.J yXuX[.OX",
"j.:.:.:.+.+.} } } k k k k k k rXJ.U.D.& +   . k # < 8 q y y i y k k u : : : > > - ; k ; 1 2 3 7 @X`.`.G.P.P.k K.H.Q J J 6.uXaXjX",
":.;.-.-.+. . .} { { } } <.<.rX7XY.G.Q.&       k k < 1 3 q i y k k u u e : : - - : w k 8 f f 7 j 7 `.`.).P.k k K.J Q J 6.J dXaXjX",
";.-.-. . . .} { { } } +.<.~ rXtXT.^.& +     o o k k k k k k k k y u e e 9 - 9 9 8 1 k f 3 3 j j _._.{.{.k k 8XJ J Q Q Q 5.sX7.jX",
"-.$. . . .} } } } } X.<.3.eXwXE.^.G.& $   o o o < < < f q i y u u u u e 9 q 9 9 f f k k k k k k k k k k [.yXK.J Q Q W W 6.6.kXjX",
" . . . . . .} } +.+.<.3.rXwXgXW.&X@X$ 2 o   2 o < < w 0 q q y q y u y r q q q 0 3 3 j j j j >X_._.[.[.yXyXJ J J Q W W W 5.7.7.7.",
"$. . . . . .+.+.+.<.3.~ rXwXE.2X@X4 2 < < o # < < < 8 q q y y y y q r q q 0 f f 3 3 j j j _.`._.[.yXyXyXJ J J J Q W G W W 5.6.dX",
"-. . . . . .-.@.<.3.4.rXrXgX{.2X@X4 5 2 2 2 < < w 8 9 q q y y y r a q f 0 0 f f 3 j j j _._.{.].yX8XJ J J J Q I Q G W G =.t.h.7.",
";.-.-. . .+.+.-.<.T 4.rXgXgX}.*X%X7 3 3 3 1 1 0 0 8 9 q q y y y y q 0 0 1 3 3 3 7 7 7 `._.{.].K.H.J Q Q J Y J I H H G =.=.=.t.g.",
"-.-.-.-.+.+.-.<.:.3.rXrXgX X2X*X%X%X6 6 3 3 0 8 q 9 9 9 u u q y r r 0 8 1 1 2 3 7 7 $X`.).[.K.H.Q J K K I I K Q L H G G ..&.&.q.",
"k.:.>.-.-.o.*.1.3.^ rXiX XoX_.*X$X%X6 6 t : : :X9 9 9 e e u r t 0 0 1 1 < 2 2 2 7 @X`.{. XK.J Y Y K I K I I I L K G ......#.#.&.",
"j.:.:.-.*.*.*.<.~ / uXiX X|.*X*X$X%X%X%X:X:X:X: - - > 9 , 9 9 t t 1 2 2 2 2 2 4 @X`.|.{.].0XJ Y K K K K I I I K K ......M M B #.",
"j.2.:.:.>.*.1.3./ rXiX X{.|.*X&X=X$X-X#X-X~.:X> , - , , , t t 5 5 5 5 2 4 2 4 @X@X).{.'.yX9XQ L K H H K K K H H H [ n n m m M B ",
"j.w.:.>.>.1.3.~ / 0X]. X{.).&X^.&X&X^.-X/././.~., , , , , % % #X#X4 4 4 4 7 @X@X_.|..XpXsX/ W E G G H K K K H H [ | n n b m N B ",
"j.:.:.:.*.1.3.~ rXqXk k k k k U.T.T.T.T.(.(.(./.~., ~.~.~.@X^.&X&X`.@X@X`.`.`.|.|..XaXdX7.6.W W G G G G G G G ..[ | n b b m m V ",
"q.;.-.-.1.3.T ! 0XwXk E.U.I.U.k W.I.I.W.U.U.U.(.(.Q.Q.(.F.k k k k k k k k _.|.OX.XjXjXdX6.5.W *.*.*.G G G G G ..[ M n b m M B %.",
";.-.-.-.1.<.T U 6X7XJ.J.R.R.R.R.k R.7XR.R.I.U.U.^.F.^.U.T.k Y. X{.{.{.oXoXk k zXjXlXkX7.7.5.=.=.*.*.G G G G ..[ n n n b m B %.0.",
"$.+.+.+.<.<.T eX6X6X7XJ.R.7XR.5X7Xk 7X7X7XtXR.R.I.W.Y.E.E.k ].].].pX[.[.jXOXk lXkXkXN.c.l.t.=.-...........[ [ [ n n m M B %.9.l.",
"|  . .@.<.<.T eXeX4X4X5X5X5X5X5X5Xk eX5X5X7X7XtXL.P.L.L.L.k yXyXuXpXfXaXjXkXkXk N.N.x.l.r.;.$.$.[ [ [ [ [ [ [ [ n n M M #.9.y.N.",
"{ { } X.@.] S S S D D D 4X5X5X5Xk 5XeXeXeXeXrX6XK.K.8X8X8Xk J uX6.sX6.7.7.7.7.k x.z.r.q.&.$.M n n n z [ l [ z z n n M | =.t.m.xX",
"{ { ` ' ] ] ] ] S S S D D 4XeXD k eXD eXU U eXrX9X8XJ 8XrXk 6.6.6.6.6.6.h.c.c.k y.e.9.%.B B n b x l z z l z z n n | | $.q.x.N.BX",
"{ { { ` ' ' ' ] ] ' ] S S D k k eXD D S T T T T Q J J J / k / W W t.5.t.t.r.q.k 9.8.%.N m b b c x x l l z z z n n n ..$.t.x.xXZX",
"z _ _ ` ` ` ` ) ) ' ' ] k k k U D R T P <.P P ~ Q Q J Q J k 5.W 2.=.=.9.&.&.8.k k N N m m b x x x x l l l z z z n n $.&.g.N.BXVX",
"z z _ _ ` ` ` ` ` ) ' ' S S R k k k P L <.L L L L Q Q Q 5.k W 2.=.&.$.$.#.B B B k N N m b c b x x l l l l n n n | | $.=.g.N.xXVX",
"z l z z z _ _ _ ` ` ' ' S I R U T T k L L G 1.L W Q W Q W k 2.=.>.$.#.#.B B m N k m m m m b c b l x l z l n n n [ | $.=.g.N.xXBX",
"c l l z z z _ _ _ ` ' ' S T Y Y Y E k L *.O.*.G L W W Q 5.k =.=.&.$.B B B M m k m B N M m M M b n n l n n n n M | ..&.q.y.m.B.MX",
"c l l l l z _ _ { ` @.<.I Y Y ! Q W k =.G *.G *.G W 5.5.5.k t.q.&.%.B B N N N k N N V N B M | B [ M M n M M ..| #...&.q.g.x.M.xX",
"c c c c l b { { } X.@.P T Y / ^ Q 5.k k *.=.=.=.=.W 5.5.5.k t.q.&.&.%.B N k k V #.%.#.&.&.=.#.#.| | M M M M | | #.&.&.q.e.y.M.S.",
"c c c l b { {  .+.<.<.~ Q / / 6.5.W t.k =.=.=.=.2.g.t.h.c.k g.r.q.8.V V k k V V 8.9.9.q.=.&.=.#.#.#.#.| #.#.#.#.&.#.&.9.e.e.z.M.",
"c c c b m B #.-.:.1.k ^ 6.^ 6.5.g.5.k t.=.q.=.t.g.g.g.c.x.k u.s.k k k k k V V 8.9.q.0.t.q.=.&.&.#.#.#.#.#.#.#.#.#.&.&.9.0.a.z.M.",
"v v v N Z %.;.:.5.5.6.k k 5.k k k k r.t.r.r.g.y.l.l.x.x.m.k k k k 9.8.8.V 8.p.p.0.e.g.e.t.q.&.&.#.#.B B #.B #.%.#.%.%.9.9.e.c.m.",
"v v v Z ,.&.q.j.g.c.c.5.5.k g.r.g.r.e.y.r.y.u.d.z.x.M.M.M.x.z.s.e.0.i.8.8.p.p.0.e.e.g.e.q.q.&.#.#.B N m N B B #.%.%.%.&.9.e.l.M.",
"v v Z Z ,.p.y.l.x.c.c.g.g.r.r.r.e.e.e.u.u.u.d.V.M.M.M.M.M.b.d.s.p.i.8.8.8.8.8.0.e.e.e.e.=.&.#.#.m m m m m B B #.#.#.%.&.9.e.l.N.",
"N N Z C 9.a.b.z.x.x.l.r.q.e.9.9.e.e.s.u.u.z.V.V.M.M.M.M.V.d.s.a.i.8.,.V V 8.8.9.0.e.q.9.&.#.#.M m m m m m m m M B V #.%.&.e.x.N.",
"Z Z C i.p.s.d.b.V.y.y.r.0.9.9.p.p.a.s.s.d.V.V.C.C.C.C.V.b.s.s.i.i.V V Z V C i.i.0.9.9.&.&.#.B M b m x m b M M M B B #.#.=.e.c.N.",
"C C C i.p.f.d.b.V.y.s.e.0.0.8.p.p.a.s.d.d.V.V.C.C.C.C.V.d.s.p.i.V V Z N Z V V i.8.9.9.&.&.#.B B M m m m b b M M M | #.#.&.g.v.N.",
"C ,.i.p.a.f.d.d.b.d.s.a.0.0.0.0.a.s.s.d.d.V.V.C.C.V.V.d.s.s.i.i.V N N N N V V i.9.9.9.9.&.&.#.B M M m M | M M M | M B &.9.e.x.kX",
"i.i.p.p.s.d.V.V.b.d.u.f.s.s.a.a.s.s.d.d.V.V.V.C.V.V.d.f.s.p.i.,.V N N N N V V i.8.9.e.e.q.q.=.&.#.=.$...#...#.| | B #.#.&.s.z.xX",
"p.p.p.s.d.V.V.V.V.V.V.V.d.d.d.d.d.d.d.V.V.V.V.V.V.V.d.s.s.p.i.C V Z Z Z V V i.i.a.s.s.u.u.c.c.g.5.q.q.=.&.=.#.$.#.#.#.&.9.e.m.xX",
"a.s.f.d.V.C.C.A.A.A.A.A.S.C.C.C.C.C.V.C.V.V.V.V.d.d.f.s.p.p.i.i.,.C V ,.,.i.p.s.s.d.M.M.N.N.N.N.7.7.7.5.5.t.=.&.$.&.%.8.q.c.N.xX",
"d.d.d.V.C.A.A.MXMXMXMXMXMXA.A.A.C.C.C.C.C.V.V.d.d.d.s.s.p.p.p.p.i.i.i.p.p.s.s.d.V.A.A.xXBXBXBXBXBXlXkXkX7.c.g.t.&.&.9.9.s.V.S.BX",
"V.C.C.A.A.MXNXNXNXNXCXNXNXNXNXMXMXA.C.C.V.V.d.d.f.f.s.s.s.s.a.s.s.s.s.s.d.d.C.A.xXMXBXVXVXZXZXZXZXZXmXlXlX7.c.g.q.q.0.s.u.C.xXBX"
};
